<svg width="49" height="49" viewBox="0 0 49 49" fill="none" xmlns="http://www.w3.org/2000/svg">
<g clip-path="url(#clip0_254_62)">
<path d="M38.6665 24.3477C38.6665 25.4517 37.7705 26.3477 36.6665 26.3477C35.5625 26.3477 34.6665 25.4517 34.6665 24.3477C34.6665 23.2437 35.5625 22.3477 36.6665 22.3477C37.7705 22.3477 38.6665 23.2437 38.6665 24.3477ZM20.6665 2.34766C23.9745 2.34766 26.6665 5.03966 26.6665 8.34766H28.6665C28.6665 3.93566 25.0785 0.347656 20.6665 0.347656C16.2545 0.347656 12.6665 3.93566 12.6665 8.34766H14.6665C14.6665 5.03966 17.3585 2.34766 20.6665 2.34766ZM48.6665 22.3477V34.3477H45.2405C43.5345 38.0397 40.4625 40.9037 36.6665 42.3417V48.3477H26.6665V44.3477H20.6665V48.3477H10.6665V42.3417C4.6565 40.0677 0.666504 34.3317 0.666504 27.8477C0.666504 24.6837 1.6205 21.7377 3.2545 19.2837C1.6545 18.1777 0.666504 16.3437 0.666504 14.3477C0.666504 11.0397 3.3585 8.34766 6.6665 8.34766V10.3477C4.4605 10.3477 2.6665 12.1417 2.6665 14.3477C2.6665 15.7097 3.3565 16.9577 4.4685 17.6897C7.3125 14.4177 11.5025 12.3477 16.1665 12.3477H31.1665C31.3985 12.3477 31.6285 12.3537 31.8605 12.3637C32.8385 7.63566 37.3025 6.34766 39.6665 6.34766H40.6665V15.5997C42.9085 17.3457 44.6545 19.7077 45.6605 22.3477H48.6665ZM46.6665 24.3477H44.2285L44.0025 23.6577C43.1285 20.9737 41.3785 18.5777 39.0805 16.9077L38.6665 16.6097V8.44966C37.0605 8.72766 34.0685 9.74766 33.7045 13.5257L33.6085 14.5337L32.6025 14.4237C32.1305 14.3737 31.6525 14.3477 31.1665 14.3477H16.1665C8.7225 14.3477 2.6665 20.4037 2.6665 27.8477C2.6665 33.7097 6.4085 38.8697 11.9765 40.6837L12.6665 40.9077V46.3477H18.6665V42.3477H28.6665V46.3477H34.6665V40.9077L35.3565 40.6837C39.1265 39.4557 42.1525 36.6417 43.6605 32.9697L43.9145 32.3477H46.6665V24.3477Z" fill="black"/>
</g>
<defs>
<clipPath id="clip0_254_62">
<rect width="48" height="48" fill="white" transform="translate(0.666504 0.347656)"/>
</clipPath>
</defs>
</svg>
