<svg width="48" height="49" viewBox="0 0 48 49" fill="none" xmlns="http://www.w3.org/2000/svg">
<g clip-path="url(#clip0_254_56)">
<path d="M48 13.8477V17.8477C48 18.3997 47.552 18.8477 47 18.8477C46.448 18.8477 46 18.3997 46 17.8477V13.8477C46 9.98766 42.86 6.84766 39 6.84766H9C5.14 6.84766 2 9.98766 2 13.8477V35.8477C2 39.7077 5.14 42.8477 9 42.8477H17C17.552 42.8477 18 43.2957 18 43.8477C18 44.3997 17.552 44.8477 17 44.8477H9C4.038 44.8477 0 40.8097 0 35.8477V13.8477C0 8.88566 4.038 4.84766 9 4.84766H39C43.962 4.84766 48 8.88566 48 13.8477ZM27 16.8477H41C41.552 16.8477 42 16.3997 42 15.8477C42 15.2957 41.552 14.8477 41 14.8477H27C26.448 14.8477 26 15.2957 26 15.8477C26 16.3997 26.448 16.8477 27 16.8477ZM27 24.8477H33C33.552 24.8477 34 24.3997 34 23.8477C34 23.2957 33.552 22.8477 33 22.8477H27C26.448 22.8477 26 23.2957 26 23.8477C26 24.3997 26.448 24.8477 27 24.8477ZM46.536 24.3117C47.482 25.2557 48 26.5117 48 27.8477C48 29.1837 47.48 30.4397 46.536 31.3837L31.122 46.7977C29.802 48.1197 28.044 48.8477 26.172 48.8477H23C22.448 48.8477 22 48.3997 22 47.8477V44.6757C22 42.8337 22.748 41.0297 24.05 39.7257L39.464 24.3117C41.414 22.3617 44.588 22.3617 46.536 24.3117ZM46 27.8477C46 27.0457 45.688 26.2937 45.122 25.7257C43.954 24.5557 42.048 24.5557 40.88 25.7257L25.466 41.1397C24.534 42.0697 24.002 43.3597 24.002 44.6757V46.8477H26.174C27.51 46.8477 28.766 46.3277 29.71 45.3837L45.124 29.9697C45.69 29.4037 46 28.6497 46 27.8477ZM15.674 24.3317L10.694 23.3977C9.134 23.1057 8 21.7377 8 20.1497C8 18.3277 9.482 16.8457 11.302 16.8457H14.85C16.096 16.8457 17.258 17.5157 17.884 18.5957C18.162 19.0737 18.776 19.2357 19.25 18.9617C19.728 18.6857 19.892 18.0737 19.616 17.5957C18.636 15.8997 16.812 14.8457 14.852 14.8457H14V11.8457C14 11.2937 13.552 10.8457 13 10.8457C12.448 10.8457 12 11.2937 12 11.8457V14.8457H11.302C8.378 14.8457 6 17.2237 6 20.1497C6 22.6997 7.818 24.8917 10.326 25.3617L15.306 26.2957C16.866 26.5877 18 27.9557 18 29.5437C18 31.3657 16.518 32.8477 14.698 32.8477H11.15C9.904 32.8477 8.742 32.1777 8.116 31.0977C7.836 30.6157 7.22 30.4557 6.75 30.7317C6.272 31.0077 6.108 31.6197 6.384 32.0977C7.364 33.7937 9.188 34.8477 11.148 34.8477H12V37.8477C12 38.3997 12.448 38.8477 13 38.8477C13.552 38.8477 14 38.3997 14 37.8477V34.8477H14.698C17.622 34.8477 20 32.4697 20 29.5437C20 26.9937 18.182 24.8017 15.674 24.3317Z" fill="black"/>
</g>
<defs>
<clipPath id="clip0_254_56">
<rect width="48" height="48" fill="white" transform="translate(0 0.847656)"/>
</clipPath>
</defs>
</svg>
