<svg width="119" height="105" viewBox="0 0 119 105" fill="none" xmlns="http://www.w3.org/2000/svg">
<path d="M82.469 35.5H105.469C107.126 35.5 108.469 36.8431 108.469 38.5V90.5C108.469 92.1569 107.126 93.5 105.469 93.5H82.469C80.8121 93.5 79.469 92.1569 79.469 90.5V38.5C79.469 36.8431 80.8121 35.5 82.469 35.5Z" fill="#0F0F0F"/>
<path d="M47.469 53.5H70.469C72.1258 53.5 73.469 54.8431 73.469 56.5V90.5C73.469 92.1569 72.1258 93.5 70.469 93.5H47.469C45.8121 93.5 44.469 92.1569 44.469 90.5V56.5C44.469 54.8431 45.8121 53.5 47.469 53.5Z" fill="#0F0F0F"/>
<path d="M12.469 0.5H35.874C37.5309 0.5 38.874 1.84315 38.874 3.5V90.633C38.874 92.2899 37.5309 93.633 35.874 93.633H12.469C10.8122 93.633 9.46902 92.2899 9.46902 90.633V3.5C9.46902 1.84315 10.8122 0.5 12.469 0.5Z" fill="#0F0F0F"/>
<path d="M114.969 97.5H3.96899C2.036 97.5 0.468994 99.067 0.468994 101C0.468994 102.933 2.036 104.5 3.96899 104.5H114.969C116.902 104.5 118.469 102.933 118.469 101C118.469 99.067 116.902 97.5 114.969 97.5Z" fill="#0F0F0F"/>
</svg>
