<svg width="53" height="53" viewBox="0 0 53 53" fill="none" xmlns="http://www.w3.org/2000/svg">
<path d="M52.7522 50.9703L38.4587 36.6768C41.9405 32.831 44.0833 27.7502 44.0833 22.1667C44.0833 10.2197 34.3637 0.5 22.4167 0.5C10.4697 0.5 0.75 10.2197 0.75 22.1667C0.75 34.1137 10.4697 43.8333 22.4167 43.8333C28.0002 43.8333 33.081 41.6905 36.9268 38.2087L51.2203 52.5022L52.7522 50.9703ZM2.91667 22.1667C2.91667 11.4135 11.6657 2.66667 22.4167 2.66667C33.1677 2.66667 41.9167 11.4135 41.9167 22.1667C41.9167 32.9198 33.1698 41.6667 22.4167 41.6667C11.6635 41.6667 2.91667 32.9198 2.91667 22.1667ZM31.0833 16.75V17.8333H28.9167V16.75C28.9167 14.9582 27.4585 13.5 25.6667 13.5H19.1667C17.3748 13.5 15.9167 14.9582 15.9167 16.75C15.9167 18.6458 17.2773 20.2427 19.1515 20.546L26.0263 21.6488C28.9578 22.1233 31.0833 24.6172 31.0833 27.5833C31.0833 30.5712 28.6523 33 25.6667 33H23.5V37.3333H21.3333V33H19.1667C16.181 33 13.75 30.5712 13.75 27.5833V26.5H15.9167V27.5833C15.9167 29.3752 17.3748 30.8333 19.1667 30.8333H25.6667C27.4585 30.8333 28.9167 29.3752 28.9167 27.5833C28.9167 25.6875 27.556 24.0907 25.6818 23.7873L18.807 22.6845C15.8755 22.21 13.75 19.7162 13.75 16.75C13.75 13.7622 16.181 11.3333 19.1667 11.3333H21.3333V7H23.5V11.3333H25.6667C28.6523 11.3333 31.0833 13.7622 31.0833 16.75Z" fill="black"/>
</svg>
