<svg width="114" height="13" viewBox="0 0 114 13" fill="none" xmlns="http://www.w3.org/2000/svg">
<path d="M7.8 12.008L1.536 6.36797L7.656 0.823975H9.888L2.712 6.79997L2.832 5.71997L10.056 12.008H7.8ZM0 12.008V0.823975H1.68V12.008H0ZM25.908 12.008L30.66 0.823975H32.58L37.356 12.008H35.628L31.332 1.49597H31.812L27.636 12.008H25.908ZM28.308 8.09597L28.716 6.89597H34.188L34.788 8.09597H28.308ZM55.119 12.008V0.823975H56.511L56.679 12.008H55.119ZM64.143 12.008H63.375L55.791 1.95197V0.823975H56.775L64.095 10.496L64.143 12.008ZM65.055 0.823975V12.008H63.663L63.519 0.823975H65.055ZM84.32 12.008V0.823975H88.256C89.536 0.823975 90.528 1.07997 91.232 1.59197C91.936 2.08797 92.288 2.83197 92.288 3.82397C92.288 4.51197 92.104 5.12797 91.736 5.67197C91.384 6.19997 90.864 6.61598 90.176 6.91998C89.504 7.20798 88.688 7.35197 87.728 7.35197H85.136V6.17597H87.992C88.856 6.17597 89.528 5.97597 90.008 5.57597C90.488 5.15997 90.728 4.63998 90.728 4.01598C90.728 3.40798 90.504 2.94397 90.056 2.62397C89.608 2.28797 88.96 2.11997 88.112 2.11997H85.88V12.008H84.32ZM93.056 12.176C92.544 12.176 92.112 12.08 91.76 11.888C91.424 11.696 91.104 11.408 90.8 11.024C90.4583 10.5588 90.138 10.0783 89.84 9.58397L88.28 7.06397L89.6 6.58397L91.184 8.98397C91.536 9.49597 91.832 9.90397 92.072 10.208C92.312 10.512 92.536 10.736 92.744 10.88C92.968 11.024 93.232 11.096 93.536 11.096C93.6405 11.0961 93.7448 11.0881 93.848 11.072C93.96 11.056 94.064 11.04 94.16 11.024L94.352 11.984C94.112 12.048 93.888 12.096 93.68 12.128C93.4736 12.1602 93.2649 12.1763 93.056 12.176ZM111.765 12.008V0.823975H113.469V12.008H111.765Z" fill="#0F0F0F"/>
</svg>
