<svg width="49" height="49" viewBox="0 0 49 49" fill="none" xmlns="http://www.w3.org/2000/svg">
<g clip-path="url(#clip0_254_59)">
<path d="M36.2913 47.5657C36.4473 48.0957 36.1453 48.6497 35.6133 48.8057C35.5193 48.8337 35.4253 48.8477 35.3313 48.8477C34.8973 48.8477 34.4993 48.5657 34.3733 48.1297C33.1113 43.8417 28.9833 40.8477 24.3313 40.8477C19.6793 40.8477 15.5513 43.8417 14.2893 48.1297C14.1353 48.6617 13.5753 48.9617 13.0493 48.8077C12.5173 48.6517 12.2153 48.0977 12.3713 47.5677C13.8793 42.4337 18.7973 38.8497 24.3293 38.8497C29.8613 38.8497 34.7813 42.4337 36.2873 47.5677L36.2913 47.5657ZM48.2913 29.5657C46.7833 24.4317 41.8653 20.8477 36.3333 20.8477C35.7813 20.8477 35.3333 21.2957 35.3333 21.8477C35.3333 22.3997 35.7813 22.8477 36.3333 22.8477C40.9833 22.8477 45.1133 25.8417 46.3753 30.1297C46.5013 30.5677 46.9013 30.8477 47.3333 30.8477C47.4273 30.8477 47.5213 30.8337 47.6153 30.8057C48.1473 30.6497 48.4473 30.0957 48.2913 29.5657ZM13.3333 21.8477C13.3333 21.2957 12.8853 20.8477 12.3333 20.8477C6.79928 20.8477 1.88128 24.4317 0.375285 29.5657C0.219285 30.0957 0.521285 30.6497 1.05328 30.8057C1.14728 30.8337 1.24128 30.8477 1.33528 30.8477C1.76928 30.8477 2.16728 30.5657 2.29328 30.1297C3.55528 25.8417 7.68328 22.8477 12.3353 22.8477C12.8873 22.8477 13.3333 22.3997 13.3333 21.8477ZM24.3333 18.8477C28.7453 18.8477 32.3333 22.4357 32.3333 26.8477C32.3333 31.2597 28.7453 34.8477 24.3333 34.8477C19.9213 34.8477 16.3333 31.2597 16.3333 26.8477C16.3333 22.4357 19.9213 18.8477 24.3333 18.8477ZM18.3333 26.8477C18.3333 30.1557 21.0253 32.8477 24.3333 32.8477C27.6413 32.8477 30.3333 30.1557 30.3333 26.8477C30.3333 23.5397 27.6413 20.8477 24.3333 20.8477C21.0253 20.8477 18.3333 23.5397 18.3333 26.8477ZM28.3333 8.84766C28.3333 4.43566 31.9213 0.847656 36.3333 0.847656C40.7453 0.847656 44.3333 4.43566 44.3333 8.84766C44.3333 13.2597 40.7453 16.8477 36.3333 16.8477C31.9213 16.8477 28.3333 13.2597 28.3333 8.84766ZM30.3333 8.84766C30.3333 12.1557 33.0253 14.8477 36.3333 14.8477C39.6413 14.8477 42.3333 12.1557 42.3333 8.84766C42.3333 5.53966 39.6413 2.84766 36.3333 2.84766C33.0253 2.84766 30.3333 5.53966 30.3333 8.84766ZM4.33328 8.84766C4.33328 4.43566 7.92128 0.847656 12.3333 0.847656C16.7453 0.847656 20.3333 4.43566 20.3333 8.84766C20.3333 13.2597 16.7453 16.8477 12.3333 16.8477C7.92128 16.8477 4.33328 13.2597 4.33328 8.84766ZM6.33328 8.84766C6.33328 12.1557 9.02528 14.8477 12.3333 14.8477C15.6413 14.8477 18.3333 12.1557 18.3333 8.84766C18.3333 5.53966 15.6413 2.84766 12.3333 2.84766C9.02528 2.84766 6.33328 5.53966 6.33328 8.84766Z" fill="black"/>
</g>
<defs>
<clipPath id="clip0_254_59">
<rect width="48" height="48" fill="white" transform="translate(0.333252 0.847656)"/>
</clipPath>
</defs>
</svg>
